<svg xmlns="http://www.w3.org/2000/svg" xml:space="preserve" viewBox="0 0 256 256"><path d="M69.4 14.4c-.9.8-1 3.4-1 18.9 0 16.7.1 18.1 1.1 19 .6.6 1.5 1 2 1s9.8-2.3 20.7-5l19.8-5 2.8 2.9c7.8 8.1 19.5 8.2 27.3.5l3.4-3.4 20.1 5.1c12.8 3.3 20.5 4.9 21.4 4.6.7-.2 1.6-1.1 2-2 .3-.8.6-8.9.6-17.9 0-17.9-.2-19.4-3.2-19.7-.9-.1-10.5 2-21.3 4.8l-19.7 5-2.8-3.1c-3.9-4.1-7.9-5.8-13.8-5.9-5.7 0-10.4 2-14.1 6.2l-2.5 2.8-19.4-4.9c-10.6-2.8-20-5-20.9-5-.9.1-2 .5-2.5 1.1z"/><path d="M25.2 52.4c-6 3.5-11.5 6.8-12.2 7.4-3.1 2.8-3-1.7-3 91.1 0 63.4.2 87.1.7 88.2 1.7 3.6-5 3.4 117.3 3.4s115.7.2 117.3-3.4c.5-1.1.7-24.2.7-85.7 0-82.8 0-84.2-1.2-86.6-1.3-2.6-2-3.3-15.4-13.8-4.9-3.9-9.1-6.8-9.3-6.6-.2.2-19.4 37.1-42.7 81.9-23.2 44.8-43.8 84.3-45.7 87.8l-3.4 6.3-4.1-7.9-45.8-87.8c-22.9-43.9-41.7-80.1-42-80.3-.1-.1-5.2 2.5-11.2 6z"/><path d="M125.6 76.7c-7.9 1.5-13.4 9.8-11.7 17.8 2.8 12.9 19.4 16.6 27 6 8.1-11.2-1.7-26.3-15.3-23.8zM123.6 128a14.4 14.4 0 0 0-8.2 7.5c-3.1 6.3-1.8 13.6 3.3 18.1 3.1 2.7 5.7 3.6 10 3.6 4.4 0 7.6-1.2 10.3-3.9 9.7-9.3 4.1-25.2-9.3-26-2.4-.1-4.7.1-6.1.7z"/></svg>
